<svg xmlns="http://www.w3.org/2000/svg" viewBox="0 0 655.24 341.18"><defs><style>.cls-1{fill:#29e6ff;}.cls-2{fill:#fff;}</style></defs><g id="Layer_2" data-name="Layer 2"><g id="Layer_1-2" data-name="Layer 1"><path class="cls-1" d="M20.09,182.74V97.2a61,61,0,0,1,1.9-15A72.4,72.4,0,0,1,33.47,57.94,89.59,89.59,0,0,1,47.6,42.5,96.4,96.4,0,0,1,74.38,26a77.4,77.4,0,0,1,28.71-5.94,77.19,77.19,0,0,1,29.09,6.12A95.14,95.14,0,0,1,152.88,38a88.5,88.5,0,0,1,23.7,26.45,70.19,70.19,0,0,1,6.7,15.82,61.75,61.75,0,0,1,2.38,16.89,10,10,0,0,0,20.09,0,81.51,81.51,0,0,0-2.49-20,92.46,92.46,0,0,0-14.5-31,109.15,109.15,0,0,0-17.18-18.93A115.35,115.35,0,0,0,139.29,7.41,96.61,96.61,0,0,0,103.09,0a97.61,97.61,0,0,0-36.8,7.63A115.74,115.74,0,0,0,41.07,22,109,109,0,0,0,11.82,54.49,90.5,90.5,0,0,0,3.16,74.82,81.6,81.6,0,0,0,0,97.2v85.54a10,10,0,1,0,20.09,0Z"/><path class="cls-1" d="M185.66,158.44V244a61,61,0,0,1-1.9,15,72.4,72.4,0,0,1-11.48,24.22,89.59,89.59,0,0,1-14.13,15.44,96,96,0,0,1-26.78,16.47,77.4,77.4,0,0,1-28.71,5.94A77.19,77.19,0,0,1,73.57,315a95.14,95.14,0,0,1-20.7-11.83,88.5,88.5,0,0,1-23.7-26.45,70.19,70.19,0,0,1-6.7-15.82A62.13,62.13,0,0,1,20.09,244,10,10,0,0,0,0,244a81.51,81.51,0,0,0,2.49,20,92.65,92.65,0,0,0,14.5,31,109.15,109.15,0,0,0,17.18,18.93,115.35,115.35,0,0,0,32.29,19.94,96.61,96.61,0,0,0,36.2,7.41,97.61,97.61,0,0,0,36.8-7.63,115.74,115.74,0,0,0,25.22-14.33,109.12,109.12,0,0,0,29.25-32.52,90.77,90.77,0,0,0,8.66-20.34A81.6,81.6,0,0,0,205.75,244V158.44a10,10,0,1,0-20.09,0Z"/><path class="cls-1" d="M148.46,149.08c5.43,0,9.83-4.82,9.83-10.75V106.11c0-32.65-24.22-59.12-54.1-59.12S47.46,73.46,47.46,106.11v129c0,32.66,26.84,59.13,56.73,59.13s54.1-26.47,54.1-59.13V219c0-5.94-4.4-10.75-9.83-10.75s-9.84,4.81-9.84,10.75v16.12c0,20.78-15.42,37.63-34.43,37.63s-37.06-16.85-37.06-37.63v-129c0-20.78,18-37.62,37.06-37.62s34.43,16.84,34.43,37.62v32.22C138.62,144.26,143,149.08,148.46,149.08Z"/><path class="cls-1" d="M93,106.11v129c0,5.94,4.4,10.75,9.84,10.75s9.83-4.81,9.83-10.75v-129c0-5.93-4.4-10.75-9.83-10.75S93,100.18,93,106.11Z"/><path class="cls-2" d="M252.64,104.27a32.39,32.39,0,0,1-12.59-12.63,37,37,0,0,1-4.52-18.33,36.6,36.6,0,0,1,4.52-18.26,32.53,32.53,0,0,1,12.53-12.56A36.4,36.4,0,0,1,270.84,38a33.63,33.63,0,0,1,16.93,4.15A26.22,26.22,0,0,1,298.7,54L287,61.27a19.11,19.11,0,0,0-7-7.19,18.34,18.34,0,0,0-9.23-2.4,18.74,18.74,0,0,0-14.17,5.9q-5.62,5.88-5.62,15.73t5.56,15.74a18.68,18.68,0,0,0,14.23,5.89,18.34,18.34,0,0,0,9.23-2.4,19.08,19.08,0,0,0,7-7.18l11.73,7.25a27.32,27.32,0,0,1-11.06,12,32.85,32.85,0,0,1-16.8,4.21A36.49,36.49,0,0,1,252.64,104.27Z"/><path class="cls-2" d="M305.3,11.79h15.27v96.1H305.3Z"/><path class="cls-2" d="M346.11,104.27a32.11,32.11,0,0,1-12.4-12.63,37.29,37.29,0,0,1-4.46-18.33,36.89,36.89,0,0,1,4.46-18.26,32.13,32.13,0,0,1,12.4-12.56,37.56,37.56,0,0,1,35.8,0,32.27,32.27,0,0,1,12.4,12.56,37,37,0,0,1,4.46,18.26,37.4,37.4,0,0,1-4.46,18.33,32.25,32.25,0,0,1-12.4,12.63,37.63,37.63,0,0,1-35.8,0ZM377.87,89q5.5-6,5.5-15.67t-5.5-15.67a19.18,19.18,0,0,0-27.79,0q-5.44,6-5.44,15.67T350.08,89a19.18,19.18,0,0,0,27.79,0Z"/><path class="cls-2" d="M470.61,38.73v69.16H456.07V99.08a24.42,24.42,0,0,1-9.16,7.19,28,28,0,0,1-11.86,2.53q-13.07,0-20.58-7.71T407,78.23V38.73h15.28V76q0,9.33,4,13.92t11.3,4.6q8.17,0,13-5.37t4.83-15.48v-35Z"/><path class="cls-2" d="M548.56,11.79v96.1H533.9V99a23.75,23.75,0,0,1-9.35,7.39,30,30,0,0,1-12.28,2.46,32.8,32.8,0,0,1-16.92-4.41A30.78,30.78,0,0,1,483.56,91.9a39.24,39.24,0,0,1-4.28-18.59,38.85,38.85,0,0,1,4.28-18.52,30.87,30.87,0,0,1,11.79-12.43A32.8,32.8,0,0,1,512.27,38a29.6,29.6,0,0,1,11.86,2.33,24.05,24.05,0,0,1,9.16,7V11.79ZM524,92.29a18.69,18.69,0,0,0,7-7.58,24.31,24.31,0,0,0,2.56-11.4A24.34,24.34,0,0,0,531,61.91a18.89,18.89,0,0,0-33.72,0,24.22,24.22,0,0,0-2.57,11.4,24.19,24.19,0,0,0,2.57,11.4A19.25,19.25,0,0,0,524,92.29Z"/><path class="cls-2" d="M247.63,216.09a38,38,0,0,1-12.1-5.57l5.87-12.3a36.59,36.59,0,0,0,10.57,5,41.29,41.29,0,0,0,12.15,1.88q13.69,0,13.69-7.64a5.08,5.08,0,0,0-3.48-5.05,57.22,57.22,0,0,0-11.18-2.72,86.12,86.12,0,0,1-13.14-3,20.12,20.12,0,0,1-8.8-5.89q-3.72-4.22-3.72-11.72a18.76,18.76,0,0,1,7.76-15.74q7.75-5.9,20.95-5.89a57.17,57.17,0,0,1,13.44,1.62,36.51,36.51,0,0,1,11,4.33l-5.87,12.31a34.63,34.63,0,0,0-18.69-5.18q-6.72,0-10.2,2.14a6.39,6.39,0,0,0-3.49,5.63,5.62,5.62,0,0,0,3.73,5.5,56.25,56.25,0,0,0,11.55,3,83.86,83.86,0,0,1,12.83,3,19.94,19.94,0,0,1,8.61,5.69q3.6,4,3.6,11.4a18.3,18.3,0,0,1-7.94,15.54q-7.93,5.83-21.62,5.83A55.23,55.23,0,0,1,247.63,216.09Z"/><path class="cls-2" d="M342.93,213.63a17.73,17.73,0,0,1-6.53,3.5,28.18,28.18,0,0,1-8.13,1.16q-10.75,0-16.62-6T305.79,195V161.69H295V148.74h10.75v-15.8h15.27v15.8h17.47v12.95H321.06v32.9q0,5.06,2.32,7.71A8.45,8.45,0,0,0,330.1,205a13,13,0,0,0,8.56-2.85Z"/><path class="cls-2" d="M411.72,148.22v69.16H397.18v-8.8a24.52,24.52,0,0,1-9.16,7.19,28.14,28.14,0,0,1-11.86,2.52q-13.07,0-20.58-7.71t-7.52-22.85V148.22h15.28v37.3q0,9.33,4,13.93t11.3,4.6q8.17,0,13-5.38t4.83-15.48v-35Z"/><path class="cls-2" d="M489.55,121.29v96.09H474.89v-8.93a23.81,23.81,0,0,1-9.35,7.38,30,30,0,0,1-12.28,2.46,32.89,32.89,0,0,1-16.92-4.4,30.8,30.8,0,0,1-11.79-12.5,42.36,42.36,0,0,1,0-37.11,30.93,30.93,0,0,1,11.79-12.43,32.89,32.89,0,0,1,16.92-4.4,29.35,29.35,0,0,1,11.85,2.33,23.88,23.88,0,0,1,9.17,7V121.29ZM465,201.78a18.83,18.83,0,0,0,7-7.58,26.64,26.64,0,0,0,0-22.79,18.89,18.89,0,0,0-33.73,0,26.64,26.64,0,0,0,0,22.79A19.26,19.26,0,0,0,465,201.78Z"/><path class="cls-2" d="M504.33,134a10,10,0,0,1,0-13.86,9.55,9.55,0,0,1,7-2.78,9.74,9.74,0,0,1,7,2.66,8.76,8.76,0,0,1,2.81,6.67,10,10,0,0,1-2.75,7.18,9.2,9.2,0,0,1-7,2.92A9.52,9.52,0,0,1,504.33,134Zm-.73,14.18h15.27v69.16H503.6Z"/><path class="cls-2" d="M544.41,213.76A32,32,0,0,1,532,201.13a39.75,39.75,0,0,1,0-36.59A32.13,32.13,0,0,1,544.41,152a37.63,37.63,0,0,1,35.8,0,32.27,32.27,0,0,1,12.4,12.56,39.75,39.75,0,0,1,0,36.59,32.12,32.12,0,0,1-12.4,12.63,37.63,37.63,0,0,1-35.8,0Zm31.77-15.28q5.49-6,5.49-15.68t-5.49-15.67a18.14,18.14,0,0,0-13.93-5.95,17.94,17.94,0,0,0-13.87,5.95q-5.45,6-5.44,15.67t5.44,15.68a17.94,17.94,0,0,0,13.87,6A18.14,18.14,0,0,0,576.18,198.48Z"/><path class="cls-1" d="M249.69,309.39a28.88,28.88,0,0,1-10.59-6.05l2.73-5a31.12,31.12,0,0,0,9.82,5.68,35.32,35.32,0,0,0,12.56,2.27q9.39,0,13.86-3.28a10.65,10.65,0,0,0,4.46-9.08,8.76,8.76,0,0,0-2.44-6.56,14.75,14.75,0,0,0-6-3.53,96,96,0,0,0-9.87-2.4,78.18,78.18,0,0,1-11.9-3,18.51,18.51,0,0,1-7.74-5.3q-3.21-3.65-3.21-10.09A16.12,16.12,0,0,1,247.49,250q6.12-5.1,17.43-5.11a40.35,40.35,0,0,1,11.78,1.77,28.68,28.68,0,0,1,9.52,4.67l-2.74,5A27.88,27.88,0,0,0,274.8,252a33.59,33.59,0,0,0-10-1.52q-8.69,0-13.09,3.41a10.8,10.8,0,0,0-4.4,9,9.19,9.19,0,0,0,2.5,6.87,15.43,15.43,0,0,0,6.13,3.66A99.21,99.21,0,0,0,266.11,276a83.72,83.72,0,0,1,11.72,3,17.7,17.7,0,0,1,7.56,5.11q3.09,3.52,3.09,9.71a15.7,15.7,0,0,1-6.42,13.12q-6.44,4.92-18.09,4.92A42.48,42.48,0,0,1,249.69,309.39Z"/><path class="cls-1" d="M333,307.12a14.86,14.86,0,0,1-5.65,3.47,21.16,21.16,0,0,1-7.09,1.2q-8.08,0-12.49-4.73t-4.4-13.18v-43H291.93v-5.42h11.43V231.06h5.95v14.38h19.75v5.42H309.31v42.39q0,6.42,2.91,9.77t8.63,3.34a13.34,13.34,0,0,0,9.64-3.65Z"/><path class="cls-1" d="M352.68,307.5a30.13,30.13,0,0,1-11.13-11.92,38.72,38.72,0,0,1,0-34.44,30.45,30.45,0,0,1,54,0,38.63,38.63,0,0,1,0,34.44,30.91,30.91,0,0,1-42.9,11.92Zm28.68-4.92a24.77,24.77,0,0,0,8.93-9.84,33.25,33.25,0,0,0,0-28.76,24.9,24.9,0,0,0-8.93-9.84,24.94,24.94,0,0,0-25.58,0,24.83,24.83,0,0,0-8.93,9.84,33.25,33.25,0,0,0,0,28.76,24.69,24.69,0,0,0,8.93,9.84,24.94,24.94,0,0,0,25.58,0Z"/><path class="cls-1" d="M429.73,248.78a27.08,27.08,0,0,1,14.76-3.85v6.18l-1.43-.12q-10.35,0-16.18,6.87T421.05,277v34.31H415.1V245.44h5.71v14.38A22.51,22.51,0,0,1,429.73,248.78Z"/><path class="cls-1" d="M496.61,251.18q6.19,6.24,6.19,18.35v41.75h-5.71V299.55a21.24,21.24,0,0,1-8.69,9,27.41,27.41,0,0,1-13.68,3.22q-10.35,0-16.37-5.17a18.62,18.62,0,0,1-.47-26.93q5.53-5.12,17.67-5.11h21.3v-5.3q0-9.21-4.7-14t-13.74-4.8a31.31,31.31,0,0,0-11.84,2.28,29.3,29.3,0,0,0-9.58,6.05l-3-4.54a32.76,32.76,0,0,1,11.19-6.88,38.54,38.54,0,0,1,13.68-2.46Q490.43,244.93,496.61,251.18Zm-7.91,51.65a22.8,22.8,0,0,0,8.15-11V279.5H475.67q-9.17,0-13.27,3.53a12.12,12.12,0,0,0-4.11,9.71,12.45,12.45,0,0,0,4.53,10.16q4.51,3.72,12.73,3.72A22.39,22.39,0,0,0,488.7,302.83Z"/><path class="cls-1" d="M580.39,245.44v58.78q0,16.39-7.5,24.22t-22.61,7.82a46.86,46.86,0,0,1-16.18-2.78,31.13,31.13,0,0,1-12.26-7.69l3.21-4.79a32.55,32.55,0,0,0,11.19,7.06,38.38,38.38,0,0,0,13.92,2.52q12.38,0,18.33-6.24t6-19.36v-11.1A27.26,27.26,0,0,1,563.85,305a30,30,0,0,1-15.24,3.91,30.9,30.9,0,0,1-15.76-4.1,29.31,29.31,0,0,1-11.13-11.42,35.74,35.74,0,0,1,0-33.05A28.93,28.93,0,0,1,532.85,249a31.26,31.26,0,0,1,15.76-4,30.06,30.06,0,0,1,15.47,4,27,27,0,0,1,10.6,11.35V245.44Zm-18.21,54.43a23.5,23.5,0,0,0,9.1-9.34,30.06,30.06,0,0,0,0-27.31,23.65,23.65,0,0,0-9.1-9.27,25.93,25.93,0,0,0-13.09-3.34,25.61,25.61,0,0,0-13,3.34,23.77,23.77,0,0,0-9,9.27,30.06,30.06,0,0,0,0,27.31,23.62,23.62,0,0,0,9,9.34,25.51,25.51,0,0,0,13,3.34A25.83,25.83,0,0,0,562.18,299.87Z"/><path class="cls-1" d="M655.12,279.88H601.69a28.63,28.63,0,0,0,3.69,13.68,24.11,24.11,0,0,0,9.34,9.27,28.39,28.39,0,0,0,24.51.95,22.11,22.11,0,0,0,8.63-6.88l3.45,4.17A26.69,26.69,0,0,1,641.14,309a33.6,33.6,0,0,1-29.81-1.51A30.25,30.25,0,0,1,600,295.64a35.59,35.59,0,0,1-4.1-17.28,37.54,37.54,0,0,1,3.86-17.22,29.65,29.65,0,0,1,10.65-11.92,29.27,29.27,0,0,1,30.41-.06A29.43,29.43,0,0,1,651.37,261a37.18,37.18,0,0,1,3.87,17.16Zm-41.29-26.31a22.9,22.9,0,0,0-8.39,8.71A29.39,29.39,0,0,0,601.81,275h47.6a27.64,27.64,0,0,0-3.57-12.62,24,24,0,0,0-8.45-8.7,22.42,22.42,0,0,0-11.78-3.16A22.72,22.72,0,0,0,613.83,253.57Z"/></g></g></svg>