<?xml version="1.0" encoding="utf-8"?>
<!-- Generator: Adobe Illustrator 25.4.1, SVG Export Plug-In . SVG Version: 6.00 Build 0)  -->
<svg version="1.1" id="Layer_1" xmlns="http://www.w3.org/2000/svg" xmlns:xlink="http://www.w3.org/1999/xlink" x="0px" y="0px"
	 width="1920px" height="1080px" viewBox="0 0 1920 1080" style="enable-background:new 0 0 1920 1080;" xml:space="preserve">
<style type="text/css">
	.st0{fill:#001E61;}
	.st1{fill:#410099;}
	.st2{fill:#009ADE;}
	.st3{fill:#7E57C5;}
	.st4{fill:#F45197;}
	.st5{fill:#29E6FF;}
	.st6{fill:#4A4A4A;}
	.st7{fill:#FFA6A0;}
	.st8{fill:#FFFFFF;}
	.st9{fill:#062858;}
	.st10{fill:none;stroke:#001E61;stroke-miterlimit:10;}
	.st11{fill:none;}
	.st12{fill:none;stroke:#FFFFFF;stroke-miterlimit:10;}
	.st13{fill:#666666;}
	.st14{opacity:0.15;}
</style>
<rect y="0.0983431" class="st6" width="1921.0001221" height="1083.8223877"/>
<g>
	<g>
		<g>
			<path class="st13" d="M790.1398926,770.5406494L581.9699707,562.3706665
				c-12.4810181-12.4833374-23.1034546-26.2816772-32.0151367-41.1773682
				c-15.5859375-26.0504761-25.9240723-55.5352173-31.2054443-86.6620483
				c-3.9619751-23.3323975-5.0671997-47.5548096-3.4605103-71.7028809
				c2.3964844-36.221344,10.9279785-72.2553711,24.6140137-104.7424011
				c13.6682129-32.5061035,32.4749146-61.3970337,54.8982544-83.7960052
				c22.7537842-22.7784119,52.1243896-41.7447662,85.1381836-55.3629837
				c24.7463989-10.2226334,51.4987793-17.4413757,78.7957153-21.2101898
				c40.9555054-5.6752167,83.0697632-3.5357056,121.5823975,7.1128769
				c19.2672119,5.317421,37.6455688,12.737999,54.6864624,22.3153839
				c17.0452271,9.5824432,32.7584229,21.3078766,46.8228149,35.3688965
				c13.5031128,13.5031433,35.3136597,13.5856323,48.7153931,0.18396
				c13.4014893-13.401535,13.3190918-35.2122269-0.18396-48.7153702
				c-16.6586914-16.6606903-35.0420532-30.8180313-54.5700684-42.5486908
				C941.597229,50.895813,903.97052,37.7826004,865.4196777,31.104147
				c-28.9255371-5.0080814-58.4034424-6.4091682-87.5764771-4.5608292
				c-43.7607422,2.7855606-86.8562622,12.8487988-126.4988403,29.4620914
				c-39.6237183,16.6300354-75.8625488,39.8283539-105.4424438,69.3853531
				c-30.0250854,30.050827-53.5421753,67.0158997-70.3193665,107.4550781
				c-12.5735474,30.3434601-21.3493652,62.684494-26.01828,95.7779999
				c-6.9805603,49.6296997-4.7748718,101.0177002,8.4930115,149.7867432
				c6.6410828,24.3733521,16.0726013,48.0802612,28.5653687,70.4229736
				c12.4874268,22.3381958,28.0502014,43.3061523,46.8160095,62.0684204l208.1699829,208.1699219
				c13.5031128,13.5031738,35.3137207,13.5856323,48.7153931,0.18396
				c13.4014893-13.4015503,13.3191528-35.2122192-0.184021-48.7153931L790.1398926,770.5406494z"/>
		</g>
		<g>
			<path class="st13" d="M1130.8604736,311.547699l208.1699219,208.1699524
				c12.4805908,12.4832153,23.1032715,26.2814331,32.0150146,41.1772461
				c15.5859375,26.0504761,25.9240723,55.5352173,31.2053223,86.6619263
				c3.9620361,23.3325195,5.0673828,47.5549316,3.4605713,71.7030029
				c-2.3963623,36.2213745-10.9279785,72.255127-24.6138916,104.7424316
				c-13.6682129,32.5061035-32.4752197,61.3970337-54.8981934,83.7958374
				c-22.7540283,22.7786865-52.1245117,41.7449341-85.1383057,55.3631592
				c-24.74646,10.2224731-51.4987793,17.4413452-78.7956543,21.210144
				c-40.9555664,5.6752319-83.0699463,3.5358276-121.5823975-7.112854
				c-19.267395-5.3173218-37.6456299-12.7380371-54.6866455-22.3155518
				c-17.0453491-9.5822754-32.7585449-21.3077393-46.8225098-35.3685913
				c-13.5031738-13.5031738-35.3137207-13.5853882-48.7151489-0.18396
				c-13.4015503,13.4015503-13.3191528,35.2119751,0.18396,48.7150879
				c16.6581421,16.6607056,35.0413818,30.8181763,54.5696411,42.5488281
				c34.1908569,20.5380249,71.8172607,33.6513062,110.3684082,40.3296509
				c28.9255371,5.0081787,58.4033203,6.4090576,87.5765381,4.5609131
				c43.760498-2.7857666,86.8560791-12.848999,126.4987793-29.4621582
				c39.6235352-16.6300049,75.8621826-39.8284302,105.4425049-69.385437
				c30.0247803-30.0507202,53.5418701-67.0158081,70.3193359-107.4549561
				c12.5732422-30.3435059,21.3492432-62.6846313,26.0180664-95.7778931
				c6.9805908-49.6299438,4.7749023-101.0176392-8.4927979-149.7868652
				c-6.6412354-24.37323-16.0727539-48.0801392-28.5654297-70.4229736
				c-12.4876709-22.3381653-28.0505371-43.3060303-46.815918-62.0682678l-208.1699219-208.1699524
				c-13.5031738-13.5031281-35.3137207-13.5853577-48.7150879-0.18396
				c-13.4014893,13.4015503-13.3192139,35.2119751,0.18396,48.7151184L1130.8604736,311.547699z"/>
		</g>
	</g>
	<path class="st13" d="M1020.526123,376.3073425c13.3959961-13.3959656,12.543457-35.9677124-1.9041138-50.4153442
		l-78.3868408-78.3868408c-79.4620361-79.4619904-203.6065063-84.1508484-277.2845459-10.4728546
		s-75.4512939,204.2847137,4.0106812,283.7467041L980.878418,834.696106
		c79.4620361,79.4620361,210.0687256,77.6886597,283.7467041,4.0106201s68.9891357-197.8224487-10.4729004-277.2844849
		l-39.239624-39.239624c-14.4476318-14.4476318-37.0194092-15.3001404-50.4154053-1.9041748
		c-13.395874,13.3959961-12.543457,35.9677734,1.9041748,50.4154053l39.239624,39.239624
		c50.5667725,50.5667114,53.5505371,129.567749,6.6645508,176.4537964
		c-46.8859863,46.8859863-132.3492432,50.3643188-182.9158936-0.2023926L715.4725342,472.2677917
		c-50.5667725-50.5667419-47.0883789-136.0299683-0.2023926-182.9159546s125.887085-43.9022064,176.4537964,6.6645203
		l78.3868408,78.3868408C984.5584106,388.8508301,1007.130127,389.7033386,1020.526123,376.3073425z"/>
	<path class="st13" d="M779.657959,408.0823364l313.9171143,313.9171143
		c14.4476318,14.4476318,36.8781738,15.4412842,50.0999756,2.2194824
		c13.2219238-13.2218018,12.2281494-35.6524048-2.2194824-50.1000366L827.5385132,360.2018127
		c-14.4476318-14.4476318-36.8782349-15.4413147-50.1000366-2.2194824
		C764.2166138,371.2041321,765.2103271,393.6347046,779.657959,408.0823364z"/>
</g>
</svg>
