<svg xmlns="http://www.w3.org/2000/svg" viewBox="0 0 1029.63 1030.56"><defs><style>.cls-1{fill:#666;}</style></defs><g id="Layer_2" data-name="Layer 2"><g id="Layer_1-2" data-name="Layer 1"><path class="cls-1" d="M344.46,744.78,136.29,536.61a211.85,211.85,0,0,1-32-41.18c-15.58-26.05-25.92-55.53-31.2-86.66a307.07,307.07,0,0,1-3.46-71.7A327.73,327.73,0,0,1,94.22,232.32c13.67-32.5,32.47-61.39,54.9-83.79,22.75-22.78,52.12-41.75,85.14-55.37A323.2,323.2,0,0,1,313.05,72c41-5.67,83.07-3.53,121.58,7.12a243.37,243.37,0,0,1,54.69,22.31,214.46,214.46,0,0,1,46.82,35.37,34.32,34.32,0,1,0,48.53-48.53A283.11,283.11,0,0,0,530.1,45.67C495.91,25.13,458.29,12,419.74,5.34A374.83,374.83,0,0,0,332.16.78a393.36,393.36,0,0,0-126.5,29.46C166,46.87,129.8,70.07,100.22,99.63c-30,30.05-53.54,67-70.32,107.45a395.18,395.18,0,0,0-26,95.78c-7,49.63-4.77,101,8.49,149.79a312.92,312.92,0,0,0,28.57,70.42,282.37,282.37,0,0,0,46.82,62.07L295.93,793.31a34.32,34.32,0,1,0,48.53-48.53Z"/><path class="cls-1" d="M685.18,285.78,893.35,494a212.1,212.1,0,0,1,32,41.18c15.59,26,25.93,55.54,31.21,86.66A308.25,308.25,0,0,1,960,693.5a328,328,0,0,1-24.62,104.74c-13.66,32.51-32.47,61.4-54.89,83.8-22.76,22.77-52.13,41.74-85.14,55.36a323.4,323.4,0,0,1-78.8,21.21c-41,5.67-83.07,3.53-121.58-7.11a243.86,243.86,0,0,1-54.69-22.32,214.69,214.69,0,0,1-46.82-35.37A34.32,34.32,0,1,0,445,942.34a283.41,283.41,0,0,0,54.57,42.55c34.19,20.54,71.82,33.65,110.37,40.33a374.71,374.71,0,0,0,87.57,4.56A393.09,393.09,0,0,0,824,1000.32c39.63-16.63,75.86-39.83,105.45-69.39,30-30,53.54-67,70.31-107.45a394.6,394.6,0,0,0,26-95.78c7-49.63,4.78-101-8.49-149.79a312,312,0,0,0-28.57-70.42,282.55,282.55,0,0,0-46.81-62.07L733.71,237.25a34.32,34.32,0,1,0-48.53,48.53Z"/><path class="cls-1" d="M574.84,350.54c13.4-13.39,12.55-36-1.9-50.41l-78.39-78.39c-79.46-79.46-203.6-84.15-277.28-10.47s-75.45,204.28,4,283.75L535.2,808.93c79.46,79.47,210.06,77.69,283.74,4s69-197.82-10.47-277.28l-39.24-39.24c-14.45-14.45-37-15.3-50.42-1.9s-12.54,36,1.91,50.41L760,584.17c50.56,50.57,53.55,129.57,6.66,176.45s-132.35,50.37-182.91-.2L269.79,446.5c-50.57-50.56-47.09-136-.2-182.91s125.88-43.9,176.45,6.66l78.39,78.39C538.88,363.09,561.45,363.94,574.84,350.54Z"/><path class="cls-1" d="M334,382.32,647.89,696.24c14.45,14.44,36.88,15.44,50.1,2.22s12.23-35.66-2.22-50.1L381.86,334.44C367.41,320,345,319,331.76,332.22S319.53,367.87,334,382.32Z"/></g></g></svg>